<svg width="370" height="102" viewBox="0 0 370 102" fill="none" xmlns="http://www.w3.org/2000/svg">
<path d="M24.2909 27.36C22.5149 27.36 21.0269 26.808 19.8269 25.704C18.6749 24.552 18.0989 23.136 18.0989 21.456C18.0989 19.776 18.6749 18.384 19.8269 17.28C21.0269 16.128 22.5149 15.552 24.2909 15.552C26.0669 15.552 27.5309 16.128 28.6829 17.28C29.8829 18.384 30.4829 19.776 30.4829 21.456C30.4829 23.136 29.8829 24.552 28.6829 25.704C27.5309 26.808 26.0669 27.36 24.2909 27.36ZM29.2589 32.112V72H19.1789V32.112H29.2589ZM61.322 31.536C66.074 31.536 69.914 33.048 72.842 36.072C75.77 39.048 77.234 43.224 77.234 48.6V72H67.154V49.968C67.154 46.8 66.362 44.376 64.778 42.696C63.194 40.968 61.034 40.104 58.298 40.104C55.514 40.104 53.306 40.968 51.674 42.696C50.09 44.376 49.298 46.8 49.298 49.968V72H39.218V32.112H49.298V37.08C50.642 35.352 52.346 34.008 54.41 33.048C56.522 32.04 58.826 31.536 61.322 31.536ZM102.084 72.648C98.8196 72.648 95.8916 72.072 93.2996 70.92C90.7076 69.72 88.6436 68.112 87.1076 66.096C85.6196 64.08 84.8036 61.848 84.6596 59.4H94.8116C95.0036 60.936 95.7476 62.208 97.0436 63.216C98.3876 64.224 100.044 64.728 102.012 64.728C103.932 64.728 105.42 64.344 106.476 63.576C107.58 62.808 108.132 61.824 108.132 60.624C108.132 59.328 107.46 58.368 106.116 57.744C104.82 57.072 102.732 56.352 99.8516 55.584C96.8756 54.864 94.4276 54.12 92.5076 53.352C90.6356 52.584 89.0036 51.408 87.6116 49.824C86.2676 48.24 85.5956 46.104 85.5956 43.416C85.5956 41.208 86.2196 39.192 87.4676 37.368C88.7636 35.544 90.5876 34.104 92.9396 33.048C95.3396 31.992 98.1476 31.464 101.364 31.464C106.116 31.464 109.908 32.664 112.74 35.064C115.572 37.416 117.132 40.608 117.42 44.64H107.772C107.628 43.056 106.956 41.808 105.756 40.896C104.604 39.936 103.044 39.456 101.076 39.456C99.2516 39.456 97.8356 39.792 96.8276 40.464C95.8676 41.136 95.3876 42.072 95.3876 43.272C95.3876 44.616 96.0596 45.648 97.4036 46.368C98.7476 47.04 100.836 47.736 103.668 48.456C106.548 49.176 108.924 49.92 110.796 50.688C112.668 51.456 114.276 52.656 115.62 54.288C117.012 55.872 117.732 57.984 117.78 60.624C117.78 62.928 117.132 64.992 115.836 66.816C114.588 68.64 112.764 70.08 110.364 71.136C108.012 72.144 105.252 72.648 102.084 72.648ZM163.71 32.112V72H153.558V66.96C152.262 68.688 150.558 70.056 148.446 71.064C146.382 72.024 144.126 72.504 141.678 72.504C138.558 72.504 135.798 71.856 133.398 70.56C130.998 69.216 129.102 67.272 127.71 64.728C126.366 62.136 125.694 59.064 125.694 55.512V32.112H135.774V54.072C135.774 57.24 136.566 59.688 138.15 61.416C139.734 63.096 141.894 63.936 144.63 63.936C147.414 63.936 149.598 63.096 151.182 61.416C152.766 59.688 153.558 57.24 153.558 54.072V32.112H163.71ZM183.736 18.72V72H173.656V18.72H183.736ZM198.807 27.36C197.031 27.36 195.543 26.808 194.343 25.704C193.191 24.552 192.615 23.136 192.615 21.456C192.615 19.776 193.191 18.384 194.343 17.28C195.543 16.128 197.031 15.552 198.807 15.552C200.583 15.552 202.047 16.128 203.199 17.28C204.399 18.384 204.999 19.776 204.999 21.456C204.999 23.136 204.399 24.552 203.199 25.704C202.047 26.808 200.583 27.36 198.807 27.36ZM203.775 32.112V72H193.695V32.112H203.775ZM235.838 31.536C240.59 31.536 244.43 33.048 247.358 36.072C250.286 39.048 251.75 43.224 251.75 48.6V72H241.67V49.968C241.67 46.8 240.878 44.376 239.294 42.696C237.71 40.968 235.55 40.104 232.814 40.104C230.03 40.104 227.822 40.968 226.19 42.696C224.606 44.376 223.814 46.8 223.814 49.968V72H213.734V32.112H223.814V37.08C225.158 35.352 226.862 34.008 228.926 33.048C231.038 32.04 233.342 31.536 235.838 31.536ZM298.415 51.192C298.415 52.632 298.319 53.928 298.127 55.08H268.967C269.207 57.96 270.215 60.216 271.991 61.848C273.767 63.48 275.951 64.296 278.543 64.296C282.287 64.296 284.951 62.688 286.535 59.472H297.407C296.255 63.312 294.047 66.48 290.783 68.976C287.519 71.424 283.511 72.648 278.759 72.648C274.919 72.648 271.463 71.808 268.391 70.128C265.367 68.4 262.991 65.976 261.263 62.856C259.583 59.736 258.743 56.136 258.743 52.056C258.743 47.928 259.583 44.304 261.263 41.184C262.943 38.064 265.295 35.664 268.319 33.984C271.343 32.304 274.823 31.464 278.759 31.464C282.551 31.464 285.935 32.28 288.911 33.912C291.935 35.544 294.263 37.872 295.895 40.896C297.575 43.872 298.415 47.304 298.415 51.192ZM287.975 48.312C287.927 45.72 286.991 43.656 285.167 42.12C283.343 40.536 281.111 39.744 278.471 39.744C275.975 39.744 273.863 40.512 272.135 42.048C270.455 43.536 269.423 45.624 269.039 48.312H287.975Z" fill="#43549D"/>
<path d="M352.933 75.024V90.576H304.333V75.024H352.933Z" fill="#FFCA56"/>
</svg>
